# xmcd
#
# Track frame offsets: 
#        150
#        15683
#        28950
#        46598
#        58819
#        74731
#        91653
#        105007
#        125420
#        139464
#        154800
#        181161
#
# Disc length: 2625 seconds
#
# Revision: 3
# Processed by: cddbd v1.5.2PL0 Copyright (c) Steve Scherf et al.
# Submitted via: ExactAudioCopy v0.99pb5
#
DISCID=9d0a3f0c
DTITLE=Jamie Cullum - Interlude
DYEAR=2014
DGENRE=Vocal
TTITLE0=Interlude
TTITLE1=Don't You Know
TTITLE2=The Seer's Tower
TTITLE3=Walkin'
TTITLE4=Good Morning Heartache (feat.Laura Mvula)
TTITLE5=Sack O' Woe
TTITLE6=Don't Let Me Be Misunderstood (feat.Gregory Porter)
TTITLE7=My One And Only Love
TTITLE8=Lovesick Blues
TTITLE9=Losing You
TTITLE10=Out Of This World
TTITLE11=Make Someone Happy
EXTD=
EXTT0=
EXTT1=
EXTT2=
EXTT3=
EXTT4=
EXTT5=
EXTT6=
EXTT7=
EXTT8=
EXTT9=
EXTT10=
EXTT11=
PLAYORDER=
